<?xml version="1.0" encoding="UTF-8"?>
<svg width="48px" height="48px" viewBox="0 0 48 48" version="1.1" xmlns="http://www.w3.org/2000/svg" xmlns:xlink="http://www.w3.org/1999/xlink">
    <title>D32271E4-2F0C-4783-804B-9044802BF22E</title>
    <defs>
        <linearGradient x1="17.8759148%" y1="-6.51032331%" x2="82.1242061%" y2="106.510437%" id="linearGradient-1">
            <stop stop-color="#5A62C3" offset="0%"></stop>
            <stop stop-color="#4D55BD" offset="50%"></stop>
            <stop stop-color="#3940AB" offset="100%"></stop>
        </linearGradient>
    </defs>
    <g id="UI-kit" stroke="none" stroke-width="1" fill="none" fill-rule="evenodd">
        <g id="Connectors" transform="translate(-720.000000, -2320.000000)" fill-rule="nonzero">
            <g id="Connector/Ably-Copy-146" transform="translate(720.000000, 2320.000000)">
                <g id="Microsoft_Office_Teams_(2018–present)" transform="translate(0.000000, 1.000000)">
                    <path d="M33.4805596,16.8749946 L45.8790766,16.8749946 C47.0504376,16.8749946 48,17.831975 48,19.0124867 C48,19.0124867 48,19.0124867 48,19.0124867 L48,30.3941116 C48,34.7327975 44.5100804,38.2499805 40.2050257,38.2499805 L40.2050257,38.2499805 L40.1681777,38.2499805 C35.863123,38.2505882 32.372708,34.7339044 32.3720835,30.3952185 C32.3720835,30.3948496 32.3720835,30.3944806 32.3720835,30.3940899 L32.3720835,17.9921301 C32.3720835,17.3751455 32.8683791,16.8749946 33.4805596,16.8749946 L33.4805596,16.8749946 Z" id="Path" fill="#5059C9"></path>
                    <ellipse id="Oval" fill="#5059C9" cx="41.8604714" cy="9.56248969" rx="5.02325657" ry="5.06249837"></ellipse>
                    <ellipse id="Oval" fill="#7B83EB" cx="26.2325549" cy="7.31250488" rx="7.25582222" ry="7.31250488"></ellipse>
                    <path d="M35.9073578,16.8749946 L15.4414799,16.8749946 C14.2840742,16.9038611 13.3684955,17.8718889 13.3953508,19.0383797 L13.3953508,32.0197542 C13.2337237,39.0197624 18.7288756,44.828689 25.6744296,45 C32.6199836,44.828689 38.1151141,39.0197624 37.9535084,32.0197542 L37.9535084,19.0383797 C37.9803206,17.8718889 37.0647635,16.9038611 35.9073578,16.8749946 Z" id="Path" fill="#7B83EB"></path>
                    <path d="M26.7907017,16.8749946 L26.7907017,35.0662387 C26.7851454,35.9004386 26.283552,36.649862 25.5181434,36.9674809 C25.2744427,37.0713788 25.0125227,37.1249881 24.7479107,37.1249881 L14.3776694,37.1249881 C14.2325603,36.7537382 14.0986068,36.3824883 13.9869645,35.9999957 C13.5962165,34.7090966 13.3968368,33.3671275 13.3953293,32.0174969 L13.3953293,19.0349939 C13.3684955,17.8703697 14.2825667,16.9038611 15.4381203,16.8749946 L26.7907017,16.8749946 Z" id="Path" fill="#000000" opacity="0.1"></path>
                    <path d="M25.6744296,16.8749946 L25.6744296,36.1912311 C25.6744296,36.4579103 25.6212359,36.7218765 25.5181434,36.9674809 C25.2029865,37.7388689 24.4593722,38.2444025 23.6316386,38.2499805 L14.9023278,38.2499805 C14.7125532,37.8787306 14.5339557,37.5074807 14.3776694,37.1249881 C14.2213831,36.7424954 14.0986068,36.3824883 13.9869645,35.9999957 C13.5962165,34.7091183 13.3968368,33.3671275 13.3953293,32.0174969 L13.3953293,19.0349939 C13.3684955,17.8703697 14.2825667,16.9038611 15.4381203,16.8749946 L25.6744296,16.8749946 Z" id="Path" fill="#000000" opacity="0.2"></path>
                    <path d="M25.6744296,16.8749946 L25.6744296,33.9412463 C25.6659229,35.0747034 24.7563097,35.9914225 23.6316386,35.9999957 L13.986986,35.9999957 C13.596238,34.7091183 13.3968584,33.3671275 13.3953508,32.0174969 L13.3953508,19.0349939 C13.3685171,17.8703697 14.2825882,16.9038611 15.4381418,16.8749946 L25.6744296,16.8749946 Z" id="Path" fill="#000000" opacity="0.2"></path>
                    <path d="M24.558136,16.8749946 L24.558136,33.9412463 C24.5496293,35.0747034 23.6400161,35.9914225 22.515345,35.9999957 L13.986986,35.9999957 C13.596238,34.7091183 13.3968584,33.3671275 13.3953508,32.0174969 L13.3953508,19.0349939 C13.3685171,17.8703697 14.2825882,16.9038611 15.4381418,16.8749946 L24.558136,16.8749946 Z" id="Path" fill="#000000" opacity="0.2"></path>
                    <path d="M26.7907017,11.0587537 L26.7907017,14.6025025 C26.600927,14.6137453 26.4223295,14.6250098 26.2325549,14.6250098 C26.0427802,14.6250098 25.8641827,14.613767 25.6744081,14.6025025 C25.2976154,14.577304 24.9239239,14.5170532 24.558136,14.4225098 C22.2976598,13.8830092 20.4301498,12.2853216 19.5348795,10.1250184 C19.3808329,9.7622332 19.2612439,9.38553557 19.1776629,9.00002605 L24.7478891,9.00002605 C25.8743262,9.00432347 26.786416,9.92351691 26.7907017,11.0587537 Z" id="Path" fill="#000000" opacity="0.1"></path>
                    <path d="M25.6744296,12.1837461 L25.6744296,14.6025025 C25.2976369,14.577304 24.9239454,14.5170532 24.5581576,14.4225098 C22.2976813,13.8830092 20.4301713,12.2853216 19.534901,10.1250184 L23.6316386,10.1250184 C24.7580541,10.1293159 25.670144,11.048531 25.6744296,12.1837461 Z" id="Path" fill="#000000" opacity="0.2"></path>
                    <path d="M25.6744296,12.1837461 L25.6744296,14.6025025 C25.2976369,14.577304 24.9239454,14.5170532 24.5581576,14.4225098 C22.2976813,13.8830092 20.4301713,12.2853216 19.534901,10.1250184 L23.6316386,10.1250184 C24.7580541,10.1293159 25.670144,11.048531 25.6744296,12.1837461 Z" id="Path" fill="#000000" opacity="0.2"></path>
                    <path d="M24.558136,12.1837461 L24.558136,14.4224881 C22.2976598,13.8829875 20.4301498,12.2852999 19.5348795,10.1249967 L22.515345,10.1249967 C23.641782,10.1293159 24.5538504,11.048531 24.558136,12.1837461 Z" id="Path" fill="#000000" opacity="0.2"></path>
                    <path d="M2.04612907,10.1249967 L22.5119854,10.1249967 C23.6420405,10.1249967 24.5581145,11.0482489 24.5581145,12.1871102 L24.5581145,32.8128464 C24.5581145,33.9517294 23.6420189,34.8749598 22.5119854,34.8749598 L2.04612907,34.8749598 C0.916074017,34.8749598 0,33.9517077 0,32.8128464 L0,12.1871102 C0,11.0482489 0.916095553,10.1249967 2.04612907,10.1249967 Z" id="Path" fill="url(#linearGradient-1)"></path>
                    <polygon id="Path" fill="#FFFFFF" points="17.6640098 17.9752442 13.5728285 17.9752442 13.5728285 29.2027478 10.9663344 29.2027478 10.9663344 17.9752442 6.89414774 17.9752442 6.89414774 15.7972522 17.6640098 15.7972522"></polygon>
                </g>
            </g>
        </g>
    </g>
</svg>